<?xml version="1.0" standalone="no"?>
<!DOCTYPE svg PUBLIC "-//W3C//DTD SVG 20010904//EN"
 "http://www.w3.org/TR/2001/REC-SVG-20010904/DTD/svg10.dtd">
<svg version="1.0" xmlns="http://www.w3.org/2000/svg"
 width="204.000000pt" height="192.000000pt" viewBox="0 0 204.000000 192.000000"
 preserveAspectRatio="xMidYMid meet">
<metadata>
Created by potrace 1.10, written by Peter Selinger 2001-2011
</metadata>
<g transform="translate(0.000000,192.000000) scale(0.100000,-0.100000)"
fill="#000000" stroke="none">
<path d="M565 1871 c-309 -153 -535 -482 -551 -806 -6 -115 8 -97 37 47 70
340 249 583 536 727 45 22 87 50 93 61 17 31 -3 26 -115 -29z"/>
<path d="M1360 1900 c6 -11 50 -40 99 -64 159 -80 298 -208 391 -359 65 -105
102 -203 133 -348 31 -150 46 -178 47 -89 0 119 -54 299 -128 427 -100 174
-248 314 -425 404 -110 55 -134 61 -117 29z"/>
<path d="M586 1379 c-14 -11 -26 -29 -26 -39 0 -11 28 -57 63 -102 187 -246
227 -301 227 -314 0 -8 -17 -33 -38 -57 -21 -23 -82 -93 -135 -155 -103 -120
-115 -148 -75 -176 26 -19 106 -21 143 -4 14 6 68 60 121 120 52 59 101 108
108 108 8 0 44 -40 81 -90 36 -49 82 -103 101 -120 34 -30 35 -30 153 -30 105
0 121 2 145 21 14 11 26 29 26 39 0 11 -70 112 -155 225 -85 113 -155 209
-155 213 0 4 32 43 71 87 109 123 189 225 189 240 0 26 -51 55 -96 55 -67 0
-85 -12 -179 -117 -49 -54 -94 -99 -100 -101 -6 -1 -46 43 -89 98 -42 56 -88
105 -102 110 -14 6 -76 10 -138 10 -99 0 -117 -3 -140 -21z m364 -141 c51 -68
95 -124 99 -126 4 -1 56 54 115 123 l108 125 71 0 71 0 -35 -37 c-20 -21 -80
-90 -134 -153 -54 -63 -107 -123 -118 -133 -13 -11 -17 -21 -11 -25 6 -4 79
-98 162 -209 84 -111 157 -205 162 -208 6 -3 10 -13 10 -21 0 -11 -24 -14
-132 -14 l-133 0 -20 30 c-11 16 -58 79 -105 140 l-84 112 -21 -25 c-11 -14
-65 -77 -120 -141 l-100 -116 -67 0 c-38 0 -68 3 -68 6 0 3 36 46 80 95 261
290 239 262 218 283 -10 11 -64 81 -120 155 -56 75 -121 159 -145 187 -24 28
-43 56 -43 63 0 8 40 11 134 11 l134 0 92 -122z"/>
<path d="M785 1223 c52 -67 173 -226 329 -430 102 -135 110 -143 143 -143 31
0 33 2 21 18 -28 39 -413 549 -437 579 -21 27 -33 33 -64 33 l-38 0 46 -57z"/>
<path d="M2013 915 c-6 -16 -21 -77 -33 -135 -64 -307 -242 -550 -505 -687
-83 -43 -143 -93 -113 -93 34 0 217 102 293 163 147 118 270 294 324 462 39
119 53 198 49 265 -3 54 -3 54 -15 25z"/>
<path d="M13 850 c16 -247 162 -518 371 -686 77 -62 260 -164 294 -164 30 0
-30 50 -113 93 -136 71 -267 187 -352 312 -80 119 -128 237 -162 405 -29 137
-45 154 -38 40z"/>
</g>
</svg>
